<svg xmlns="http://www.w3.org/2000/svg" xmlns:xlink="http://www.w3.org/1999/xlink" viewBox="0 0 3604.12 1384.48"><defs><style>.cls-1{fill:none;}.cls-2{clip-path:url(#clip-path);}.cls-3{fill:url(#linear-gradient);}.cls-4{font-size:797.13px;fill:#00b3b0;}.cls-4,.cls-7{font-family:QanelasSoftDEMO-ExtraBold, Qanelas Soft DEMO;font-weight:800;}.cls-5{letter-spacing:-0.02em;}.cls-6{letter-spacing:-0.02em;}.cls-7{font-size:308.39px;fill:#ec8105;}.cls-8{letter-spacing:0.18em;}.cls-9{letter-spacing:0.16em;}</style><clipPath id="clip-path"><path class="cls-1" d="M453.77,1050.13l55.29,139.71L614.63,1070,487.81,962.11ZM702,907.38l164.6,104.52L782.07,735ZM498.33,942.1l183.42-36.5L588.62,795.23Zm-21.87,13.62L334.31,918.36l110.26,119.83Zm206.4-37.17L499.42,955l122,103.73Zm185.61,109.86L700.2,921.56v331.56Zm193.71,147.35L923.11,1233.3,998.85,1249ZM1056.35,581l-54.87-140-95.55,90.82ZM880.28,1012.73l156.77-207.19-244-78.64Zm167.66-200.17-156,206.17,301.49-31.61ZM469,825.83,367.3,724.14,322.48,901.92,478,942.77Zm103.85-29.62-90.77,31.22L490,931ZM771.07,728,598.8,787.29l93.34,110.62ZM896.52,542.28,793.06,713.35l249,80.24,18.43-197.7Zm-11.8-19-28-134.78-89.14,79.91ZM787.64,697.36l96.78-160L763.68,480.79ZM484.29,813l276.19-95-239-58.77ZM255,621.71,481.51,393.63,243.92,435ZM193.58,283.23,114.77,381.7,228,419.79Zm1.49-21,165.81-123L76.5,241.74Zm458-145.09L502.55,186l184,15.22ZM484.92,197.53,491.6,246,648.13,211Zm-69.29-73.36,63.05,58.6L624.3,116.18Zm49,63.14L399.4,126.7,228.57,253.44ZM417.38,329.4,448,346.71,436.05,332Zm31.5-44.31-46.06,29.22,32.53,4.6Zm135.86-2.5-57.29-12.9,16,28.16Zm-42.17,51.79,38.06-36.51-34.35,12.68Zm-43.2,41.43,27.86-26.72L533.79,307l-23.33-41.17-23.08-5.2-19.89,12.63-20.64,51.6,31.84,39.21Zm112.49-90-99.35,95.3,234.4,79.13L687.17,219.89Zm-96.24-32,90,20.28,62-54.22ZM383.47,311.29l95.75-60.74-7.16-51.92L221.33,268.87Zm98,69.23-99.4-56.27L205.6,278.07l36.34,144.21ZM242.69,631.31,231.52,443.74l-118,110.07Zm17.68,3.34L509.89,644.7,494.81,398.53ZM106.06,372l78.77-98.41L61.35,252.23Zm3.36,168L224.84,432.33,110.37,393.82Zm413,99L742.41,472.29,507.39,393Zm-158,65.34,121.46-47.72L270.42,648Zm-135-27.14L328,697.55,141.13,585.4Zm126.47,39.25L236.58,691.84l76.71,193.69ZM507.58,662,375.36,713.92l96.33,96.33ZM750.85,482.1,531.45,648.4l244.44,60.11Zm14.8-232.27-66.6-35.64,53.47,215.12ZM906.7,1225.7l5.12-2.39-.25.82,159.39-66L885.74,1039.44ZM193.3,658.23,101.79,563.1,61,587.52Zm139.19,572.59,9.68-13.31L308.34,908.13,244.21,746.21ZM361,1340.05l-16.12-104.3-9.18,12.64,0,.09-1.54,2-.08.11h0l-.1.13-45.19,58.93,72.19,30.4Zm58.33-37.62-61-63.85,14.5,93.83Zm5.8-73.63h0l0-.19.11-3.85.22-.08,14.7-172.23-117-127.11L355,1216.42,423.38,1288l1.73-58.86Zm73.36-30.57L450.94,1078.1l-12.1,141.73ZM643.93,1271l-24.64-186.73L517.07,1200.29Zm15.45,18.53,27.89-20.26V940.61l-56.83,129.63L658.39,1282Zm25.89,80.81,1.75-84.94-28.82,21L592,1354.45Zm86.8-17.73-72.19-65.74-1.72,82.92Zm26.64-76.51,63-217.19L702.4,1271.66,781.83,1344l16-64.85.74-3Zm95.65-44.6-19.36-172-60.78,209.35Zm112.41,80.38-10.95-50.26-90.11-18.72-18.78,60Zm73.64-137.45-72.17,83.5,10.8,49.63,72.16-56.11Zm112-174.18-295.59,31,186.4,119.51Zm27.78-190.76-148-200.65-17.85,191.34,147,176.42ZM1023.44,461.62l49.61,126.59,127.31,172.66L1123,575.11Zm-154-75.3,28.18,135.57,94.47-89.8ZM777.48,265.08,763.61,454.62l88.64-79.45ZM775.42,153l-68.58,50.8L767,235.92ZM664.36,110.59l33.35,83.87,77.45-57.36-40-82ZM459,90.78h0l-1.41.29-2,.41h0L365,109.59l35,2.28,203.71-7.81L499.29,82.3l-40.21,8.47ZM396.3,30.38l11.5,57.48,37.09-7.42Zm-66.32,73,65.15-13L382.35,26.51ZM155.12,199.71l213.46-76.95-51.52-3.35ZM17.81,381.23l77-2.51L52.12,264.34ZM13,512.88l83.5,32.63,1-154L15.43,394.2ZM50.24,579,88.3,556.16,21.47,530ZM779,244.47l85.87,126.42,141.33,52.74,1.52.57,1.08,1.22,124.54,142,.71.81.4,1,98.32,236,.64,1.53-.19,1.65L1212.51,993l-.19,1.71-1,1.37-119.74,165,12.92,92.21.52,3.7-2.94,2.29-83.2,64.71-2,1.52-2.48-.18-136.58-10.2-8.11-.61,2.42-7.75,18.6-59.41-81.17,37.85-17.83,72.36-.95,3.84-3.88.91-94,21.84-1.24.29-1.26-.21-115.8-19.67L559.55,1362l12.42-9,75.55-54.9L646,1286.87l-139.66-77.79-68.51,24.83-2.05,69.89-.1,3.4-2.86,1.85-67.73,43.7-2.83,1.83-3.15-1.33-83-35-7.69-3.24,5.06-6.61L322,1245.15,220.39,687.32,45,593.52l-1.6-.86-.92-1.56L.92,520.51,0,519l0-1.82,2.64-129.3,0-.9.23-.79,42.27-144,.79-2.7,2.54-1.26L311.37,107.83l69-101.3L384.79,0l5.5,5.67,69.63,71.74,38.05-8,1.31-.27,1.31.27L655,101.57l78.48-61.52,6.27-4.92,3.51,7.17,45.88,93.94.79,1.63-.19,1.84Z"/></clipPath><linearGradient id="linear-gradient" x1="498.9" y1="1041.37" x2="754.27" y2="284.66" gradientUnits="userSpaceOnUse"><stop offset="0" stop-color="#dc8825"/><stop offset="1" stop-color="#e19a45"/></linearGradient></defs><title>1Asset 2</title><g id="Layer_2" data-name="Layer 2"><g id="Layer_1-2" data-name="Layer 1"><g class="cls-2"><rect class="cls-3" width="1233.45" height="1384.48"/></g><text class="cls-4" transform="translate(1333.12 1040.18)"><tspan class="cls-5">K</tspan><tspan x="483.06" y="0">ap</tspan><tspan class="cls-6" x="1387.79" y="0">p</tspan><tspan x="1864.47" y="0">y</tspan></text><text class="cls-7" transform="translate(1362.44 1286.29)"><tspan class="cls-8">Bu</tspan><tspan class="cls-9" x="487.89" y="0">y</tspan><tspan x="694.53" y="0">s</tspan></text></g></g></svg>