<svg xmlns="http://www.w3.org/2000/svg" viewBox="0 0 256 256"><defs><style>.cls-1{fill:#cd7f32;}</style></defs><title>1Artboard 2</title><g id="Bronze"><rect class="cls-1" x="40.75" y="177.94" width="174.49" height="36.38"/><polygon class="cls-1" points="249.51 113.63 236.07 89.68 209.43 96.35 198.74 137.6 181.5 137.6 195.51 108.02 184.3 92.64 166.51 99.41 161.32 137.6 146.78 137.6 164.27 67.98 128 41.68 91.73 67.98 109.22 137.6 94.68 137.6 89.49 99.41 71.7 92.64 60.49 108.02 74.5 137.6 57.26 137.6 46.57 96.35 19.93 89.68 6.49 113.63 39.96 166.96 40.75 166.96 40.75 167.08 215.25 167.08 215.25 166.96 216.04 166.96 249.51 113.63"/></g></svg>