<svg xmlns="http://www.w3.org/2000/svg" viewBox="0 0 256 256"><defs><style>.cls-1{fill:gold;}</style></defs><title>1Artboard 4</title><g id="Ouro"><path class="cls-1" d="M200.2,179.45l39-122.36A10.41,10.41,0,1,0,232,47.2a10.4,10.4,0,0,0,4.5,8.57L186,129.45l-2.5-53.76a8.71,8.71,0,0,0,1,.11,10.53,10.53,0,1,0-3.74-.72L154.1,116.72l-24.41-82a10.44,10.44,0,1,0-3.38,0l-24.41,82L75.16,75.08a10.38,10.38,0,1,0-3.74.72,9.11,9.11,0,0,0,1-.11L70,129.45,19.55,55.77a10.43,10.43,0,1,0-5.94,1.86,10.51,10.51,0,0,0,3.19-.54l39,122.36"/><rect class="cls-1" x="55.96" y="192.56" width="144.07" height="38.15"/></g></svg>