<svg xmlns="http://www.w3.org/2000/svg" viewBox="0 0 256 256"><defs><style>.cls-1{fill:silver;}</style></defs><title>1Artboard 3</title><g id="Prata"><rect class="cls-1" x="43.5" y="180.45" width="169" height="31.76"/><path class="cls-1" d="M153.84,165.88H212.5V43.79L178,78.29c.2.29.36.57.56.85a66.14,66.14,0,0,1,16.29,32.57,22.94,22.94,0,0,1-22.52,27.08h0a18.55,18.55,0,0,1-9.89-34.24,35.69,35.69,0,0,1,6.91-3.38L128,65.35,86.67,101.17a35.69,35.69,0,0,1,6.91,3.38,18.55,18.55,0,0,1-9.89,34.24h0a22.94,22.94,0,0,1-22.52-27.08A66.14,66.14,0,0,1,77.44,79.14c.2-.28.36-.56.56-.85L43.5,43.79V165.88H153.84Z"/></g></svg>