<svg xmlns="http://www.w3.org/2000/svg" viewBox="0 0 768.62 625.12"><defs><style>.cls-1{fill:#cde695;}.cls-2{fill:#68a355;}.cls-3{fill:#aacc7a;}.cls-4{fill:#5f8241;}.cls-5{fill:#8ba563;}.cls-6{fill:#fffcdc;}.cls-7{fill:#cecab6;}.cls-8{fill:#ed455f;}.cls-9{fill:#b2364d;}.cls-10{fill:#788c54;}</style></defs><title>1Asset 4</title><g id="Layer_2" data-name="Layer 2"><g id="Layer_2-2" data-name="Layer 2"><polygon class="cls-1" points="0 386.85 520.38 187.06 738.75 258.61 226.74 534.6 0 386.85"/><path class="cls-2" d="M379.28,385a29.41,29.41,0,0,1,1.36-12.39c2.35-6.53,7.6-11.9,13.28-16.51,19.4-15.74,45.58-24.64,71.79-24.41s49.49,3.78,68.53,19.87c-18.74,8.32-34.79,22.47-53.53,30.79-22.23,9.87-44.47,19.77-65.63,31.4-10,5.47-14.94,6.89-23.08-1.6A45.19,45.19,0,0,1,379.28,385Z"/><ellipse class="cls-3" cx="226.62" cy="411.83" rx="27.06" ry="51.52" transform="translate(-242.26 378.58) rotate(-57.12)"/><ellipse class="cls-3" cx="574.03" cy="257.47" rx="16.27" ry="41.46" transform="translate(153.34 725.25) rotate(-72.19)"/><path class="cls-3" d="M374.84,338.21c13.3,3.27,27.59,2.53,39.74-3.61,4.45-2.24,8.66-5.28,11.22-9.55,3.37-5.6,3.45-12.76,1.26-18.92s-6.44-11.38-11.28-15.76c-16.63-15-40.06-21.46-60.79-11.69-6.83,3.22-13,8.51-15.67,15.58-3,8.09-1,17.52,4,24.61s12.43,12.08,20.35,15.55c13.39,5.85,26,7.34,35.67,19.74a305,305,0,0,0,42.2,1.58c4.84-.16,10.95-1.47,11.84-6.23.65-3.45-2-6.56-4.52-9-7-6.92-14.15-13.74-22.6-18.73s-18.33-8.06-28.07-6.86c-5.8.71-11.55,3-15.62,7.23s-6.25,10.42-4.85,16.1l1.44-2.18Z"/><path class="cls-2" d="M353.48,294.88c-1.34,7.73,3.78,15,8.89,20.93a246,246,0,0,0,29.45,29A208.59,208.59,0,0,1,363,341.7c-6.37-1.14-12.78-2.62-18.43-5.77A34.79,34.79,0,0,1,327.27,303a25.15,25.15,0,0,1,3.41-10.89c5.34-8.65,16.08-11.84,25.32-16.1,4.53-2.08,8.93-4.59,13.78-5.73a26.38,26.38,0,0,1,23.75,6.44c-2.39-2.27-11.39-1.63-14.48-1.54-3.61.11-8.31.16-11.73,1.58C361.3,279.31,354.57,288.6,353.48,294.88Z"/><path class="cls-2" d="M358.59,345.94a13,13,0,0,0,1.25,3.54c1.58,2.3,4.94,2.21,7.7,1.88,7.45-.9,15-1.84,21.84-5,.84-.39,1.8-1.05,1.66-2a2.19,2.19,0,0,0-1.13-1.34,54.61,54.61,0,0,0-26.23-8.94c-4.46-.31-10,0-13.31,3.43A13.88,13.88,0,0,1,358.59,345.94Z"/><path class="cls-1" d="M436.45,362.88a121.69,121.69,0,0,0,13.73,2.74c4.89.59,18.05-1.09,22.42,1.2-5.74-10.53-10-19.22-26.08-29.4-.87-.55-1.24-1.86-2.27-1.95a3.38,3.38,0,0,0-1.84.57,188.15,188.15,0,0,1-21.75,9.86c-7.12,2.71-15,4.1-21.92,7.05,2.8,3,11,3.51,14.89,4.45Z"/><polygon class="cls-4" points="557.52 335.46 541.94 326.86 682.41 257.87 700.49 261.67 557.52 335.46"/><polygon class="cls-3" points="456.69 253.32 508.47 231.79 521.3 237.29 464.98 259.74 456.69 253.32"/><polygon class="cls-3" points="226.22 467.87 242.26 480.7 375.4 416.09 358.19 406.01 226.22 467.87"/><path class="cls-3" d="M297.54,289.25c-12.12,2.93-20.24,15.3-21.52,27.7s3.05,24.71,8.58,35.89c5.69,11.52,12.9,22.57,22.9,30.66,8,6.45,17.48,10.79,27.16,14.26,4.78,1.71,10.11,3.22,14.83,1.33-13.89-8.25-28.07-16.75-38.35-29.22a70.47,70.47,0,0,1-13.05-24.43c-3.91-13-3.88-27.43,1.46-39.93s16.28-22.78,29.48-26a129.77,129.77,0,0,0-37.92,11Z"/><path class="cls-4" d="M67.22,394.1c.92,1.37,208.49-82,208.49-82l15.58-20.62L52.56,383.56Z"/><path class="cls-3" d="M431.93,264.62c15.9,7.66,29.87,16,39.2,31a34,34,0,0,0-1.64-7.59,61.85,61.85,0,0,0-36.77-38.42c-15.61-5.8-40.28-6-53.57,5.74,2.59,1,6-.3,8.77-.87,5.05-1,12.28,2.05,17.45,2.12C415.66,256.75,422.67,260.16,431.93,264.62Z"/><path class="cls-4" d="M385.23,253.88C386.6,253.88,415,258,415,258l126.93-48.58-20.62-9.16Z"/><path class="cls-4" d="M521.61,195.88,27.94,384.93l203,131L713.31,261.17ZM65.28,385.5l457-180.59L689,264.64,231.15,497.51Z"/><polygon class="cls-3" points="70.89 384.93 187.73 339.57 182.69 335.46 62.06 379.89 70.89 384.93"/><polygon class="cls-3" points="93.63 390.31 110.19 402.04 192.74 369.8 174.2 360.2 93.63 390.31"/><polygon class="cls-3" points="0 386.85 5.55 470.93 222.95 625.12 226.74 534.6 0 386.85"/><path class="cls-5" d="M226.74,534.6l512-276-6,69.93L223,625.12Z"/><polygon class="cls-5" points="8.33 415.36 236.15 568.16 236.15 559.13 8.33 415.36"/><polygon class="cls-5" points="10.99 435.5 238.8 588.31 238.8 579.28 10.99 435.5 10.99 435.5"/><polygon class="cls-5" points="8.33 462.59 236.15 615.39 236.15 606.37 8.33 462.59 8.33 462.59"/><polygon class="cls-6" points="168.53 322.14 385.23 449.17 445.28 417.11 226.22 299.99 168.53 322.14"/><path class="cls-6" d="M370.63,244.55c-.33.13,196.46,106.59,196.46,106.59L621.21,322,415.56,227.3Z"/><polygon class="cls-7" points="385.23 449.17 385.23 530.71 445.28 495.78 445.28 417.11 385.23 449.17"/><polygon class="cls-7" points="567.09 351.14 569.59 423.46 621.21 393.43 621.21 321.96 567.09 351.14"/><polygon class="cls-8" points="168.53 322.14 385.23 449.17 403.99 439.15 185.22 315.74 168.53 322.14"/><polygon class="cls-8" points="445.28 417.11 458.84 409.73 237.56 295.64 226.22 299.99 445.28 417.11"/><polygon class="cls-9" points="385.23 449.17 385.23 530.71 404.97 518.91 403.99 439.15 385.23 449.17"/><polygon class="cls-9" points="445.28 417.11 445.28 495.78 459.65 487.42 458.84 409.73 445.28 417.11"/><polygon class="cls-8" points="367.46 245.77 561.37 354.22 574.03 347.4 377.14 242.05 367.46 245.77"/><polygon class="cls-8" points="415.56 227.3 621.21 321.96 632.77 315.74 423.74 224.16 415.56 227.3"/><polygon class="cls-9" points="561.37 354.22 561.37 428.24 574.03 420.88 574.03 347.4 561.37 354.22"/><polygon class="cls-9" points="621.21 321.96 621.21 393.43 632.77 386.71 632.77 315.74 621.21 321.96"/><polygon class="cls-1" points="0 297.16 520.38 97.37 738.75 168.92 226.74 444.91 0 297.16"/><path class="cls-2" d="M379.28,295.28a29.41,29.41,0,0,1,1.36-12.39c2.35-6.53,7.6-11.9,13.28-16.51,19.4-15.74,45.58-24.64,71.79-24.41s49.49,3.78,68.53,19.87c-18.74,8.32-34.79,22.47-53.53,30.79-22.23,9.87-44.47,19.77-65.63,31.4-10,5.47-14.94,6.89-23.08-1.6A45.19,45.19,0,0,1,379.28,295.28Z"/><ellipse class="cls-3" cx="226.62" cy="322.14" rx="27.06" ry="51.52" transform="translate(-166.94 337.58) rotate(-57.12)"/><ellipse class="cls-3" cx="574.03" cy="167.78" rx="16.27" ry="41.46" transform="translate(238.73 662.99) rotate(-72.19)"/><path class="cls-3" d="M374.84,248.52c13.3,3.27,27.59,2.53,39.74-3.61,4.45-2.24,8.66-5.28,11.22-9.55,3.37-5.6,3.45-12.76,1.26-18.91s-6.44-11.39-11.28-15.76c-16.63-15-40.06-21.47-60.79-11.69-6.83,3.21-13,8.5-15.67,15.57-3,8.09-1,17.52,4,24.61s12.43,12.08,20.35,15.55c13.39,5.85,26,7.34,35.67,19.74a305,305,0,0,0,42.2,1.58c4.84-.16,10.95-1.47,11.84-6.23.65-3.45-2-6.56-4.52-9-7-6.92-14.15-13.74-22.6-18.73s-18.33-8.06-28.07-6.86c-5.8.71-11.55,3-15.62,7.23s-6.25,10.42-4.85,16.1l1.44-2.18Z"/><path class="cls-2" d="M353.48,205.19c-1.34,7.73,3.78,15,8.89,20.93a246,246,0,0,0,29.45,29A208.59,208.59,0,0,1,363,252c-6.37-1.14-12.78-2.61-18.43-5.77a34.79,34.79,0,0,1-17.27-32.89,25.15,25.15,0,0,1,3.41-10.89c5.34-8.65,16.08-11.84,25.32-16.1,4.53-2.08,8.93-4.59,13.78-5.73a26.38,26.38,0,0,1,23.75,6.44c-2.39-2.27-11.39-1.63-14.48-1.54-3.61.11-8.31.16-11.73,1.58C361.3,189.62,354.57,198.91,353.48,205.19Z"/><path class="cls-2" d="M358.59,256.25a13,13,0,0,0,1.25,3.54c1.58,2.3,4.94,2.21,7.7,1.88,7.45-.9,15-1.84,21.84-5,.84-.39,1.8-1.05,1.66-2a2.19,2.19,0,0,0-1.13-1.34,54.61,54.61,0,0,0-26.23-8.94c-4.46-.31-10,0-13.31,3.43A13.88,13.88,0,0,1,358.59,256.25Z"/><path class="cls-1" d="M436.45,273.19a121.69,121.69,0,0,0,13.73,2.74c4.89.59,18.05-1.09,22.42,1.2-5.74-10.53-10-19.22-26.08-29.4-.87-.55-1.24-1.86-2.27-1.95a3.38,3.38,0,0,0-1.84.57,189.93,189.93,0,0,1-21.75,9.87c-7.12,2.7-15,4.09-21.92,7,2.8,3,11,3.51,14.89,4.45Z"/><polygon class="cls-4" points="557.52 245.77 541.94 237.18 682.41 168.18 700.49 171.98 557.52 245.77"/><polygon class="cls-3" points="456.69 163.63 508.47 142.1 521.3 147.6 464.98 170.05 456.69 163.63"/><polygon class="cls-3" points="226.22 378.18 242.26 391.01 375.4 326.4 358.19 316.32 226.22 378.18"/><path class="cls-3" d="M297.54,199.56c-12.12,2.93-20.24,15.3-21.52,27.7s3.05,24.71,8.58,35.89c5.69,11.52,12.9,22.57,22.9,30.66,8,6.45,17.48,10.79,27.16,14.26,4.78,1.71,10.11,3.22,14.83,1.33-13.89-8.25-28.07-16.75-38.35-29.22a70.47,70.47,0,0,1-13.05-24.43c-3.91-13-3.88-27.43,1.46-39.92s16.28-22.79,29.48-26a129.77,129.77,0,0,0-37.92,11Z"/><path class="cls-4" d="M67.22,304.41c.92,1.37,208.49-82,208.49-82l15.58-20.62L52.56,293.87Z"/><path class="cls-3" d="M431.93,174.93c15.9,7.66,29.87,16,39.2,31a34,34,0,0,0-1.64-7.59,61.85,61.85,0,0,0-36.77-38.42c-15.61-5.8-40.28-6-53.57,5.74,2.59,1,6-.3,8.77-.87,5.05-1,12.28,2.05,17.45,2.12C415.66,167.06,422.67,170.47,431.93,174.93Z"/><path class="cls-4" d="M385.23,164.19c1.37,0,29.78,4.13,29.78,4.13l126.93-48.58-20.62-9.16Z"/><path class="cls-4" d="M521.61,106.19,27.94,295.24l203,131L713.31,171.48ZM65.28,295.81l457-180.59L689,175,231.15,407.82Z"/><polygon class="cls-3" points="70.89 295.24 187.73 249.88 182.69 245.77 62.06 290.2 70.89 295.24"/><polygon class="cls-3" points="93.63 300.62 110.19 312.35 192.74 280.11 174.2 270.51 93.63 300.62"/><polygon class="cls-3" points="0 297.16 5.55 381.24 222.95 535.43 226.74 444.91 0 297.16"/><path class="cls-5" d="M226.74,444.91l512-276-6,69.93L223,535.43Z"/><polygon class="cls-5" points="8.33 325.67 236.15 478.48 236.15 469.45 8.33 325.67"/><polygon class="cls-5" points="10.99 345.81 238.8 498.62 238.8 489.59 10.99 345.81 10.99 345.81"/><polygon class="cls-5" points="8.33 372.9 236.15 525.71 236.15 516.68 8.33 372.9 8.33 372.9"/><polygon class="cls-6" points="168.53 232.45 385.23 359.48 445.28 327.42 226.22 210.3 168.53 232.45"/><path class="cls-6" d="M370.63,154.86c-.33.13,196.46,106.59,196.46,106.59l54.12-29.17L415.56,137.61Z"/><polygon class="cls-7" points="385.23 359.48 385.23 441.02 445.28 406.09 445.28 327.42 385.23 359.48"/><polygon class="cls-7" points="567.09 261.45 569.59 333.77 621.21 303.74 621.21 232.28 567.09 261.45"/><polygon class="cls-8" points="168.53 232.45 385.23 359.48 403.99 349.46 185.22 226.05 168.53 232.45"/><polygon class="cls-8" points="445.28 327.42 458.84 320.04 237.56 205.95 226.22 210.3 445.28 327.42"/><polygon class="cls-9" points="385.23 359.48 385.23 441.02 404.97 429.23 403.99 349.46 385.23 359.48"/><polygon class="cls-9" points="445.28 327.42 445.28 406.09 459.65 397.73 458.84 320.04 445.28 327.42"/><polygon class="cls-8" points="367.46 156.08 561.37 264.53 574.03 257.71 377.14 152.36 367.46 156.08"/><polygon class="cls-8" points="415.56 137.61 621.21 232.28 632.77 226.05 423.74 134.47 415.56 137.61"/><polygon class="cls-9" points="561.37 264.53 561.37 338.56 574.03 331.19 574.03 257.71 561.37 264.53"/><polygon class="cls-9" points="621.21 232.28 621.21 303.74 632.77 297.02 632.77 226.05 621.21 232.28"/><polygon class="cls-1" points="29.37 197.73 550.53 0 768.62 72.41 255.52 346.38 29.37 197.73"/><path class="cls-2" d="M408.66,197.35A29.23,29.23,0,0,1,410.07,185c2.37-6.52,7.64-11.88,13.34-16.46,19.47-15.67,45.68-24.46,71.88-24.12s49.48,4,68.46,20.14c-18.77,8.24-34.88,22.33-53.65,30.57-22.27,9.78-44.55,19.6-65.76,31.14-10,5.44-15,6.84-23.08-1.69A45.21,45.21,0,0,1,408.66,197.35Z"/><ellipse class="cls-3" cx="255.89" cy="223.61" rx="27.06" ry="51.52" transform="translate(-71.18 315.83) rotate(-56.89)"/><ellipse class="cls-3" cx="603.91" cy="70.62" rx="16.27" ry="41.46" transform="translate(349.79 622.99) rotate(-71.97)"/><path class="cls-3" d="M404.4,150.58c13.29,3.31,27.58,2.64,39.76-3.46,4.45-2.22,8.68-5.25,11.26-9.51,3.38-5.58,3.5-12.75,1.33-18.9s-6.4-11.41-11.22-15.81C429,87.81,405.55,81.28,384.78,91c-6.84,3.19-13,8.46-15.72,15.51C366,114.56,368,124,372.92,131.11s12.38,12.13,20.28,15.63c13.37,5.91,26,7.44,35.6,19.88A304.91,304.91,0,0,0,471,168.37c4.84-.14,10.95-1.43,11.87-6.18.66-3.46-2-6.58-4.49-9.06-6.93-6.95-14.1-13.8-22.52-18.82s-18.3-8.13-28-7c-5.81.69-11.57,3-15.66,7.18s-6.28,10.39-4.91,16.08l1.45-2.18Z"/><path class="cls-2" d="M383.21,107.16c-1.37,7.73,3.72,15,8.81,21a246,246,0,0,0,29.34,29.12A210.14,210.14,0,0,1,392.51,154c-6.36-1.17-12.77-2.67-18.4-5.84a34.82,34.82,0,0,1-17.14-33,25.12,25.12,0,0,1,3.45-10.88c5.38-8.63,16.13-11.78,25.39-16,4.53-2.07,8.94-4.55,13.8-5.67a26.36,26.36,0,0,1,23.72,6.53C421,86.92,412,87.52,408.86,87.6c-3.62.09-8.31.12-11.73,1.53C391.09,91.62,384.32,100.88,383.21,107.16Z"/><path class="cls-2" d="M388.12,158.24a13,13,0,0,0,1.23,3.55c1.57,2.3,4.93,2.23,7.7,1.9,7.45-.87,15-1.78,21.86-4.9.84-.38,1.8-1,1.67-1.95a2.24,2.24,0,0,0-1.13-1.35,54.55,54.55,0,0,0-26.19-9c-4.46-.33-10,0-13.33,3.38A13.86,13.86,0,0,1,388.12,158.24Z"/><path class="cls-1" d="M465.92,175.48a121.13,121.13,0,0,0,13.71,2.8c4.89.61,18.06-1,22.41,1.29-5.69-10.56-9.93-19.26-26-29.5-.88-.56-1.24-1.87-2.27-2a3.36,3.36,0,0,0-1.84.56,190.7,190.7,0,0,1-21.79,9.78c-7.14,2.67-15,4-21.95,7,2.79,3,11,3.55,14.88,4.51Z"/><polygon class="cls-4" points="587.09 148.55 571.54 139.89 712.29 71.45 730.35 75.32 587.09 148.55"/><polygon class="cls-3" points="486.59 66 538.45 44.68 551.26 50.23 494.85 72.46 486.59 66"/><polygon class="cls-3" points="255.27 279.65 271.26 292.54 404.66 228.46 387.49 218.31 255.27 279.65"/><path class="cls-3" d="M327.29,101.31c-12.13,2.89-20.3,15.22-21.62,27.61s2.95,24.73,8.43,35.92c5.65,11.55,12.81,22.63,22.78,30.75,8,6.49,17.44,10.87,27.1,14.37,4.78,1.73,10.11,3.26,14.83,1.4-13.85-8.31-28-16.87-38.23-29.38a70.41,70.41,0,0,1-13-24.48c-3.86-13-3.77-27.44,1.62-39.92s16.37-22.72,29.58-25.91a129.52,129.52,0,0,0-38,10.86Z"/><path class="cls-4" d="M96.56,205.25c.91,1.38,208.82-81.2,208.82-81.2L321,103.49,81.94,194.65Z"/><path class="cls-3" d="M461.78,77.21c15.87,7.73,29.8,16.16,39.08,31.18a34.28,34.28,0,0,0-1.61-7.61,61.89,61.89,0,0,0-36.62-38.56c-15.58-5.85-40.26-6.12-53.6,5.53,2.59,1,6-.28,8.78-.83,5.06-1,12.27,2.1,17.44,2.18C445.54,69.28,452.54,72.71,461.78,77.21Z"/><path class="cls-4" d="M415.12,66.29c1.38,0,29.77,4.24,29.77,4.24L572,22.46l-20.59-9.25Z"/><path class="cls-4" d="M551.73,8.83,57.32,195.93,259.8,327.7,743.17,74.87ZM94.66,196.64,552.39,17.86,718.85,78.25,260.09,309.31Z"/><polygon class="cls-3" points="100.26 196.1 217.29 151.19 212.26 147.07 91.46 191.02 100.26 196.1"/><polygon class="cls-3" points="122.99 201.56 139.5 213.35 222.18 181.45 203.67 171.77 122.99 201.56"/><polygon class="cls-3" points="29.37 197.73 34.59 281.83 251.38 436.88 255.52 346.38 29.37 197.73"/><path class="cls-5" d="M255.52,346.38l513.1-274-6.27,69.91-511,294.56Z"/><polygon class="cls-5" points="37.59 226.28 264.8 379.98 264.83 370.95 37.59 226.28"/><polygon class="cls-5" points="40.17 246.43 267.38 400.13 267.41 391.1 40.17 246.43 40.17 246.43"/><polygon class="cls-5" points="37.4 273.51 264.61 427.21 264.65 418.18 37.4 273.51 37.4 273.51"/><polygon class="cls-6" points="198.16 133.69 414.35 261.57 474.53 229.76 255.94 111.77 198.16 133.69"/><path class="cls-6" d="M400.56,56.9c-.33.13,196,107.36,196,107.36l54.24-29L445.56,39.83Z"/><polygon class="cls-7" points="414.35 261.57 414.03 343.12 474.22 308.42 474.53 229.76 414.35 261.57"/><polygon class="cls-7" points="596.6 164.26 598.81 236.6 650.55 206.77 650.84 135.3 596.6 164.26"/><polygon class="cls-8" points="198.16 133.69 414.35 261.57 433.15 251.63 214.87 127.35 198.16 133.69"/><polygon class="cls-8" points="474.53 229.76 488.12 222.43 267.29 107.46 255.94 111.77 474.53 229.76"/><polygon class="cls-9" points="414.35 261.57 414.03 343.12 433.81 331.4 433.15 251.63 414.35 261.57"/><polygon class="cls-9" points="474.53 229.76 474.22 308.42 488.63 300.11 488.12 222.43 474.53 229.76"/><polygon class="cls-8" points="397.39 58.1 590.87 167.32 603.55 160.55 407.08 54.43 397.39 58.1"/><polygon class="cls-8" points="445.56 39.83 650.84 135.3 662.42 129.12 453.75 36.72 445.56 39.83"/><polygon class="cls-9" points="590.87 167.32 590.57 241.34 603.26 234.03 603.55 160.55 590.87 167.32"/><polygon class="cls-9" points="650.84 135.3 650.55 206.77 662.14 200.09 662.42 129.12 650.84 135.3"/><polygon class="cls-10" points="247.19 433.88 264.83 480.7 385.23 359.48 251.38 436.88 247.19 433.88"/></g></g></svg>