<svg xmlns="http://www.w3.org/2000/svg" viewBox="0 0 222.53 93.64"><defs><style>.cls-1{fill:#4abcbb;}.cls-1,.cls-2,.cls-3,.cls-4,.cls-5,.cls-6{fill-rule:evenodd;}.cls-2{fill:#40190a;}.cls-3{fill:#554128;}.cls-4{fill:#fff;}.cls-5{fill:#f0963a;}.cls-10,.cls-6{fill:#ed8206;}.cls-7{font-size:47.64px;fill:#00b4b1;}.cls-10,.cls-7{font-family:QanelasSoftDEMO-ExtraBold, Qanelas Soft DEMO;font-weight:800;}.cls-8{letter-spacing:-0.02em;}.cls-9{letter-spacing:-0.02em;}.cls-10{font-size:18.43px;letter-spacing:0.18em;}.cls-11{letter-spacing:0.16em;}.cls-12{letter-spacing:0em;}</style></defs><title>Asset 1</title><g id="Layer_2" data-name="Layer 2"><g id="Layer_1-2" data-name="Layer 1"><path class="cls-1" d="M44.82,70.93A35.46,35.46,0,0,0,80.28,35.47a36.17,36.17,0,0,0-.32-4.8l-1.8-.08-16.57-.72,16.57-.72,1.55-.07c-.17-.95-.39-1.89-.63-2.82l-1.5-.09-11-.73,11-.72,1-.07A35.49,35.49,0,0,0,28.1,4.18l10.15.66-11,.73-1.63.1a35.51,35.51,0,0,0-13.4,43.68l7.29.47-6.88.45A35.47,35.47,0,0,0,44.82,70.93Z"/><path class="cls-2" d="M47.66,92.37c18.39,0,33.4-3,33.4-6.72s-15-6.72-33.4-6.72-33.4,3-33.4,6.72S29.26,92.37,47.66,92.37Z"/><path class="cls-2" d="M14.6,43.59a5.73,5.73,0,0,1-.57-.73,1.68,1.68,0,0,1-.12-1.68,2.71,2.71,0,0,1,.24-.35,2.78,2.78,0,0,1,1-.62,7,7,0,0,0,.86-.56,1.8,1.8,0,0,1,2.5.11,16.4,16.4,0,0,0,1.68,1.4,10.49,10.49,0,0,0,3.36,1.37,25.06,25.06,0,0,0,5.4.55,36,36,0,0,0,5.67-.57,40.1,40.1,0,0,0,7-1.57A11.06,11.06,0,0,0,46,38.22a22.64,22.64,0,0,0,3-3.94q.54-.87,1.05-1.77a7.25,7.25,0,0,1,.8-1.21A1.53,1.53,0,0,1,52.54,31a1.55,1.55,0,0,1,.79,1.91,5.66,5.66,0,0,1-.2.58c-.23.58-.49,1.16-.77,1.71a22.39,22.39,0,0,1-4.1,6,21.18,21.18,0,0,1-8.1,5A40,40,0,0,1,30,48.12a35.51,35.51,0,0,1-7.78-.2,11.43,11.43,0,0,1-4.85-1.74A14.37,14.37,0,0,1,14.6,43.59Z"/><path class="cls-2" d="M37.42,83.4a2.27,2.27,0,0,1-1-.84,1.91,1.91,0,0,1-.71-.59,2.84,2.84,0,0,1-.49-1.59A2.75,2.75,0,0,1,36,78.47a6.58,6.58,0,0,1,1.49-1.13l.27-.15a3.19,3.19,0,0,1-.51-.47l-.5-.64c-1.07-1.35-2.14-2.67-3.08-4.12-.35-.55-.68-1.11-1-1.68a1.51,1.51,0,0,1-.66.27,1.58,1.58,0,0,1-1.63-.83,3,3,0,0,1-.17-.41,10.65,10.65,0,0,0-1.41-2.69c-1.23-1.78-2.58-3.46-3.77-5.27-.44-.66-.87-1.34-1.25-2A21.7,21.7,0,0,1,21.11,51a25,25,0,0,1,.15-6.11,5,5,0,0,1,.16-.79,7.83,7.83,0,0,1-3.58-2.16,6.67,6.67,0,0,1-.53-.64,6.6,6.6,0,0,1-4.26,1.14,3.93,3.93,0,0,1-3.66-2.3,15.54,15.54,0,0,1-1.46-5.72,34.87,34.87,0,0,1,.21-6.85,15.84,15.84,0,0,1,.72-3.4,2.3,2.3,0,0,1,.36-.63,4.76,4.76,0,0,1-.09-1.92,3.57,3.57,0,0,1,1.32-2.3,2.65,2.65,0,0,1,.42-.26,2.11,2.11,0,0,1,.49-.59A14.62,14.62,0,0,1,13.58,17a30.39,30.39,0,0,1,6.35-2.7A19.1,19.1,0,0,1,23.7,13.2q2.63-.58,5.27-1c1.48-.25,3-.48,4.47-.63a27.64,27.64,0,0,1,6.1,0c.53.06,1.07.11,1.59.21a3,3,0,0,1,.95.32l.24-.18.26-.13.25-.08.59-.19a23.61,23.61,0,0,1,3.41-.95,7,7,0,0,1,3.24.2,4.25,4.25,0,0,1,2.69,1.88,5.14,5.14,0,0,1,.43,3.3,3.76,3.76,0,0,1-.69,1.62c.25.47.48.95.7,1.45l.49-.41a4.17,4.17,0,0,1,3-1.21,5.31,5.31,0,0,1,2.89,1.17,5,5,0,0,1,2,3.16A4.49,4.49,0,0,1,60,25.6a8.51,8.51,0,0,1-2.66,1.6l.25.41a20.05,20.05,0,0,1,1.75,4c.1.25.19.51.29.76.74,2.07,1.48,4.14,2.18,6.22.22.64.43,1.29.65,1.95a2.87,2.87,0,0,1,.72.23c.31.15.61.33.92.48,1.74.91,3.54,1.74,5.31,2.59A18.52,18.52,0,0,1,75,47.29a10.58,10.58,0,0,1,2.32,4.23c0,.15.08.31.11.46a1.55,1.55,0,0,1-.81,1.73,46.1,46.1,0,0,1,.33,5.2,56,56,0,0,1-.39,8.59c-.06.43-.13.87-.22,1.3,1,.44,1,1.64,1.11,2.59a19,19,0,0,1-.1,4,6.36,6.36,0,0,1-2.8,4.39,24.93,24.93,0,0,1-7.63,3.72l-.3.09a3,3,0,0,1,.19,1.07c0,1.52-1.29,2-2.59,2.22s-2.84.19-4.24.4c-.58.08-1.14.2-1.7.33a8.35,8.35,0,0,1-1.48.26,2.3,2.3,0,0,1-1.51-.45,2.06,2.06,0,0,1-1.33-.51h0a2.19,2.19,0,0,1-1.48-1.26,2.67,2.67,0,0,1-.16-2,7.85,7.85,0,0,1-2.79.22,3.23,3.23,0,0,1-.6,1.13c0,.33,0,.68,0,1a6.69,6.69,0,0,1-.09,1.41,4.11,4.11,0,0,1-1,1.82,14.28,14.28,0,0,1-2,2,7.7,7.7,0,0,1-1.13.76,1.75,1.75,0,0,1-2.34-.25l-.14-.19a3.89,3.89,0,0,1-1,.19,1.74,1.74,0,0,1-1.89-1.68,1.64,1.64,0,0,1-.26-.2,1.58,1.58,0,0,1-.37-.48,1.47,1.47,0,0,1-.19-.58,2.41,2.41,0,0,1-2.05-.13,1.75,1.75,0,0,1-.56-.62,1.6,1.6,0,0,1-.14-1.18,1.31,1.31,0,0,1-.25-.22,1.51,1.51,0,0,1-.4-.83,1.72,1.72,0,0,1,.87-1.72,6,6,0,0,1,.8-.41Z"/><path class="cls-3" d="M10.61,21.82a2.11,2.11,0,0,1,.73-1.35,2,2,0,0,1,1.33-.3c.2,0,.39,0,.58.07l0,0a2.76,2.76,0,0,0-.73.79c-.2.32-.39.71-.43.79s.1-.12.32-.36a5.24,5.24,0,0,1,.84-.75,7.46,7.46,0,0,1,.93-.55l.09,0A3.54,3.54,0,0,1,15.57,20a31,31,0,0,1,3.75.71c1,.22,1.23.29,1.32.39s0,.25-.15.56a4,4,0,0,0-.39.77s.39-.4.87-.72a3.6,3.6,0,0,1,1.74-.58,3,3,0,0,1,1.88.52A4.35,4.35,0,0,1,26,23.35a1.59,1.59,0,0,1,0,1.58,3.07,3.07,0,0,1-1.62,1.17c-.74.27-1.63.37-2.53.61a9,9,0,0,0-2.73,1.22A10.8,10.8,0,0,0,16.78,30c-.54.71-.78,1.3-1.15,1.35s-.9-.42-1.53-1.32a29.29,29.29,0,0,1-2-3.38,19.62,19.62,0,0,1-1.28-3A3.92,3.92,0,0,1,10.61,21.82Z"/><path class="cls-4" d="M10.61,21.82a2.11,2.11,0,0,1,.73-1.35,1.83,1.83,0,0,1,1.06-.31,1.73,1.73,0,0,0-.27.15,1.61,1.61,0,0,0-.68,1,4.21,4.21,0,0,0,.07,2.19,21.73,21.73,0,0,0,1.54,4,17.84,17.84,0,0,0,2,3.28,2.82,2.82,0,0,0,.61.6h0c-.38.06-.9-.42-1.53-1.32a29.29,29.29,0,0,1-2-3.38,19.62,19.62,0,0,1-1.28-3A3.92,3.92,0,0,1,10.61,21.82Z"/><path class="cls-2" d="M20.41,25.53a14.25,14.25,0,0,0,1.2-1.18A5.46,5.46,0,0,1,23,23.09a1.54,1.54,0,0,1,1.35,0,1,1,0,0,1,.52.86,2.29,2.29,0,0,1-.11.84c0,.06,0-.23,0-.47s-.1-.41-.14-.38a3.75,3.75,0,0,1-.2.54,2,2,0,0,1-.84.78,2.45,2.45,0,0,1-1.18.16,3.7,3.7,0,0,0-.91-.07,4.58,4.58,0,0,0-.91.37,1.54,1.54,0,0,1-.59.17S20.08,25.79,20.41,25.53Z"/><path class="cls-5" d="M16.12,32.5a8.8,8.8,0,0,0,.71,4.62c1.46,3.44,2.46,5.34,7.37,6a40.37,40.37,0,0,0,5.5.25c.25,0,.59,0,1.12-.11a11.8,11.8,0,0,0,3.33-.84A8.86,8.86,0,0,0,37.41,40a11,11,0,0,0,1.84-3.31,11.38,11.38,0,0,0,.58-2.27c.07-.44.06-.5-.13-.63a3.84,3.84,0,0,0-1-.47c-.47-.13-1-.21-1-.24a4.27,4.27,0,0,1,1.36.09,4.9,4.9,0,0,1,1.91.77A3.41,3.41,0,0,1,42,35.26a3.69,3.69,0,0,1,.34,1.09c0,.13-.09-.11-.35-.45a12,12,0,0,0-.94-1c-.24-.23-.29-.24-.35,0A7.51,7.51,0,0,1,40,37a20,20,0,0,1-2.78,4.16A11.24,11.24,0,0,1,29,44.56,25.79,25.79,0,0,1,23.24,44,11.63,11.63,0,0,1,19.4,42.4a13.17,13.17,0,0,1-1.83-1.52c-.33-.28-.39-.22-.65,0a9.33,9.33,0,0,1-1,.67,4.71,4.71,0,0,0-.62.31c-.08.09,0,.22.46.79A13.73,13.73,0,0,0,18.24,45a9.89,9.89,0,0,0,4.25,1.5,34.48,34.48,0,0,0,7.44.19,38.8,38.8,0,0,0,9.74-1.84,19.57,19.57,0,0,0,7.53-4.62A21.09,21.09,0,0,0,51,34.53l.34-.72s0,0,0,.06a11.91,11.91,0,0,1-.85,2,26.73,26.73,0,0,1-2.5,4,14.76,14.76,0,0,1-3.71,3.44A23.1,23.1,0,0,1,38.39,46,47.71,47.71,0,0,1,30,47.61a41.46,41.46,0,0,1-6.91.17,5,5,0,0,1-.61-.06,21.91,21.91,0,0,0,.1,3.08,20.14,20.14,0,0,0,2.52,7.78c1.5,2.69,3.73,5.41,4.95,7.19a10.73,10.73,0,0,1,1.59,3c.15.42.23.42.18-.4s-.25-2.44-.42-3.7-.32-2.17-.14-1.81.7,2,1.32,3.54A26.19,26.19,0,0,0,35,71.14c1,1.57,2.3,3.13,3,4s.8,1.07.63.4-.62-2.22-.93-3.71A12.4,12.4,0,0,1,37.25,69c.08.11.42,1.76.86,3.32s1,3,1.44,4.29.84,2.25,1.08,2.92.32,1,.48,1,.4-.38.58-.63.31-.41.51-.24a4,4,0,0,1,.68,1c.19.36.3.6.32,0a22.65,22.65,0,0,1,.21-3.48c.26-1.54.84-3.26,1.18-4.68s.45-2.56.48-2.43a16.19,16.19,0,0,1-.19,2.76c-.18,1.24-.5,2.34-.69,3.91s-.26,3.63-.29,5,0,2,.25,1.94.87-.8,1.27-1.47S46,81,46.2,81.16a7.69,7.69,0,0,1,.53,1.57A2.67,2.67,0,0,0,47.54,84c.22.14.33,0,.62-.94a25.65,25.65,0,0,1,1.75-4.36c1-1.88,2.52-4.07,3.45-5.63s1.28-2.51,1.39-2.57,0,.75-.49,1.84-1.4,2.47-2.33,4.1S50,80,49.53,81s-.55,1.24,0,1.35a7.74,7.74,0,0,0,4-.71,42.86,42.86,0,0,0,8.07-4.44,48,48,0,0,0,6.84-5.76c1.65-1.71,2.53-3,2.6-2.83a9.94,9.94,0,0,1-2.21,3.52,34.87,34.87,0,0,1-6.47,5.7,40.25,40.25,0,0,1-6.7,3.66c-1.59.66-2.15.71-1.55.88a23,23,0,0,0,4.6.54,24.62,24.62,0,0,0,7.71-.87,24.24,24.24,0,0,0,7.14-3.48,4.84,4.84,0,0,0,2.23-3.43,17.54,17.54,0,0,0,.08-3.66c-.06-1-.15-1.5-.4-1.31a9.84,9.84,0,0,0-1,1.69c-.37.6-.67.9-.52.22a38.36,38.36,0,0,0,1.1-4.8,58.17,58.17,0,0,0,.37-8.35,41.31,41.31,0,0,0-.51-6.29c-.27-1.4-.61-2-.48-2a8.67,8.67,0,0,1,1.1,1.23c.37.48.52.74.32,0a9.17,9.17,0,0,0-2-3.62,17.34,17.34,0,0,0-5.09-3.13c-2-1-4.17-2-5.35-2.61s-1.37-.8-1.27-.2a26.1,26.1,0,0,0,.91,3.08,14,14,0,0,1,.7,1.89,7.1,7.1,0,0,1-1.26-2.28c-.62-1.49-1.31-3.67-2.09-6s-1.67-4.78-2.18-6.19c-.11-.31-.21-.56-.29-.77a20.19,20.19,0,0,0-1.64-3.75c-.68-1.17-1-1.34-1.44-1.4S54,27,53.5,27a8.7,8.7,0,0,1-1.71-.22c-.5-.13-.83-.31-.79-.34s.46.08,1.3.12a11.69,11.69,0,0,0,3.33-.32A8.14,8.14,0,0,0,59,24.5,3,3,0,0,0,60.1,22a3.55,3.55,0,0,0-1.43-2.18,3.79,3.79,0,0,0-2-.86,2.73,2.73,0,0,0-2,.88,22.47,22.47,0,0,0-2.88,2.89,14.88,14.88,0,0,0-1.35,2.08c-.18.31-.18.12-.13-.28a11,11,0,0,1,.32-1.5,3.8,3.8,0,0,1,.51-1.05c.11-.11.21-.24.32-.36.24-.28.54-.55.68-.74s.11-.28-.16-.93A12.9,12.9,0,0,0,50.36,17a8.91,8.91,0,0,0-3-2.41,7.29,7.29,0,0,0-3.89-.8,26.38,26.38,0,0,0-4.82.95c-1.31.35-2,.55-1.79.42a20.84,20.84,0,0,1,2.39-.94,9.07,9.07,0,0,0,2.1-.77c.07-.17-.76-.27-2-.41a23.64,23.64,0,0,0-5.78,0A93.22,93.22,0,0,0,24,14.66a16.48,16.48,0,0,0-3.55,1.05,28.78,28.78,0,0,0-6.17,2.61,12.09,12.09,0,0,0-2,1.25c-.21.17-.17.19.09.21a7.53,7.53,0,0,0,1.09,0,4.79,4.79,0,0,0,.83-.18,6.18,6.18,0,0,1,1.89,0c1,.11,2.34.39,3.32.59a14.13,14.13,0,0,0,2.16.38,19.11,19.11,0,0,1,1.94.09,3.24,3.24,0,0,1,2.07,1.08,4.38,4.38,0,0,1,.9,2.66,2.63,2.63,0,0,1-1.13,2.14,17.08,17.08,0,0,1-2.5,1.3,6.68,6.68,0,0,0-1.08.73,2.87,2.87,0,0,1,.67-.74c.43-.37,1-.77,1.23-.95s.1-.14-.54.06a21.13,21.13,0,0,0-2.86,1.11A12.91,12.91,0,0,0,17.61,30,4,4,0,0,0,16.12,32.5Z"/><path class="cls-6" d="M59.31,58a7,7,0,0,0,.24,1c.1.24.23.32.44.22s.49-.41.69-.46.3.15.5.36a1.8,1.8,0,0,0,.77.51.89.89,0,0,0,.8-.28A2.21,2.21,0,0,0,63.31,58a14.88,14.88,0,0,0,0-2.45c0-.45-.08-.15-.25.34a6.94,6.94,0,0,1-.68,1.53c-.24.36-.45.4-.65.29a3.18,3.18,0,0,1-.58-.58c-.19-.19-.37-.31-.56-.26s-.35.27-.51.45-.28.33-.42.3-.29-.23-.41-.47a4.35,4.35,0,0,0-.25-.52s0,.24,0,.52S59.22,57.7,59.31,58Z"/><path class="cls-6" d="M34.51,59a19.18,19.18,0,0,0,1.12,2.42c.37.6.61.67.8.43a6.1,6.1,0,0,0,.45-1.07c.11-.25.18-.19.47,0a3,3,0,0,0,1.06.52c.28,0,.35-.25.54-.84s.5-1.5.77-2.12.5-.94.81-.84.71.61,1.25,1.1a4.23,4.23,0,0,0,1.6,1c.39.06.49-.27.7-1.14a20.41,20.41,0,0,0,.52-2.74c0-.48-.27,0-.62.47a4.59,4.59,0,0,1-1.09,1.29c-.33.2-.6,0-1.11-.47a12.77,12.77,0,0,0-1.67-1.46c-.43-.24-.55,0-.8.66a10,10,0,0,1-1,2c-.35.44-.65.37-1,.1a5.12,5.12,0,0,1-.83-1.1c-.21-.35-.34-.59-.46-.49a2.9,2.9,0,0,0-.36,1,2.49,2.49,0,0,1-.45,1.09c-.2.15-.45,0-.64-.26s-.32-.51-.35-.51S34.24,58.31,34.51,59Z"/><path class="cls-6" d="M36.49,26.31a8.93,8.93,0,0,1,2-.19,7,7,0,0,1,2.75.78,7.23,7.23,0,0,1,1.89,1.43c.41.41.58.67.68.64s.16-.34.1-.79a8.06,8.06,0,0,0-.33-1.43c-.13-.4-.23-.63-.28-.81a1,1,0,0,1,.06-.59,9.9,9.9,0,0,0,.42-1.42,14.78,14.78,0,0,0,.25-2.54,11.35,11.35,0,0,0-.12-1.61c0-.23.05-.12.18.22a8.16,8.16,0,0,1,.38,1.42c.09.51.09,1,.12.78a6.12,6.12,0,0,0-.09-1.82,3.56,3.56,0,0,0-1.11-1.9,2.68,2.68,0,0,0-1.9-.6,3.13,3.13,0,0,0-2.12,1,5.18,5.18,0,0,0-1.28,2.79,19.92,19.92,0,0,0,0,3c0,.66-.22.79-.55,1s-.82.38-1.09.53S36.13,26.35,36.49,26.31Z"/><path class="cls-6" d="M16.12,32.5a6.79,6.79,0,0,0,0,1.87,4.38,4.38,0,0,1,.64-1.69,12.08,12.08,0,0,1,3-2.88c.9-.62,1.34-.72,1.45-.57s-.1.55,0,.63.39-.16,1.32-.48A17.35,17.35,0,0,0,26,28a3.7,3.7,0,0,0,1.83-2.77A5.44,5.44,0,0,0,27,21.93a3.85,3.85,0,0,0-2.11-1.6c-.81-.25-1.67-.3-2-.39s-.11-.23.69-.58a9.32,9.32,0,0,0,2-1,26.09,26.09,0,0,0-3,.65,10.63,10.63,0,0,1-2.9.42c-1,0-2.34-.15-3.35-.13a3,3,0,0,0-1.27.24,7.55,7.55,0,0,1,1.21,0c1,.11,2.34.39,3.32.59a14.13,14.13,0,0,0,2.16.38,19.11,19.11,0,0,1,1.94.09,3.24,3.24,0,0,1,2.07,1.08,4.38,4.38,0,0,1,.9,2.66,2.63,2.63,0,0,1-1.13,2.14,17.08,17.08,0,0,1-2.5,1.3,6.68,6.68,0,0,0-1.08.73,2.87,2.87,0,0,1,.67-.74c.43-.37,1-.77,1.23-.95s.1-.14-.54.06a21.13,21.13,0,0,0-2.86,1.11A12.91,12.91,0,0,0,17.61,30a4,4,0,0,0-1.49,2.51Zm2.58,9.39c-.53-.43-.9-.81-1.13-1s-.39-.22-.65,0a9.33,9.33,0,0,1-1,.67,4.71,4.71,0,0,0-.62.31l0,0,1.12.16C17.39,42.16,18.37,42.25,18.7,41.89Z"/><path class="cls-6" d="M23.87,43.06l.33,0a40.37,40.37,0,0,0,5.5.25c.25,0,.59,0,1.12-.11a11.8,11.8,0,0,0,3.33-.84A8.86,8.86,0,0,0,37.41,40a11,11,0,0,0,1.84-3.31,11.38,11.38,0,0,0,.58-2.27c.07-.44.06-.5-.13-.63a3.84,3.84,0,0,0-1-.47c-.47-.13-1-.21-1-.24a4.27,4.27,0,0,1,1.36.09,4.9,4.9,0,0,1,1.91.77A3.41,3.41,0,0,1,42,35.26a3.69,3.69,0,0,1,.34,1.09c0,.13-.09-.11-.35-.45a12,12,0,0,0-.94-1c-.24-.23-.29-.24-.35,0A7.51,7.51,0,0,1,40,37a20,20,0,0,1-2.78,4.16A11.24,11.24,0,0,1,29,44.56,25.79,25.79,0,0,1,23.24,44,11.63,11.63,0,0,1,19.4,42.4a13.17,13.17,0,0,1-1.83-1.52c-.33-.28-.39-.22-.65,0a9.33,9.33,0,0,1-1,.67,4.71,4.71,0,0,0-.62.31c-.08.09,0,.22.46.79L16,43c.36-.09.71-.2.95-.24s.48,0,1.35.55a28,28,0,0,0,4,2.2,16.78,16.78,0,0,0,4.88,1.14l1.17.1,1.52-.08a38.8,38.8,0,0,0,9.74-1.84,19.57,19.57,0,0,0,7.53-4.62A21.09,21.09,0,0,0,51,34.53l.34-.72s0,0,0,.06a11.91,11.91,0,0,1-.85,2,26.73,26.73,0,0,1-2.5,4,14.76,14.76,0,0,1-3.71,3.44,20.77,20.77,0,0,1-4,2l.11,0c1-.36,2.58-.91,4-1.51a16.38,16.38,0,0,0,4.14-2.36c1.38-1.1,2.8-2.66,3.93-3.75s2-1.74,2.76-1,1.54,2.73,2.21,4.9,1.28,4.45,1.6,5.78.36,1.69.17,1.73-.62-.23-1-.64-.79-.94-1-.94-.2.53-.24,1.19a11.71,11.71,0,0,1-.26,1.93c-.12.5-.29.73-.57.72a2.11,2.11,0,0,1-1-.47c-.27-.2-.45-.35-.48.16a7.58,7.58,0,0,0,.18,1.9c.11.2.22-.57.32-.92s.18-.29.53-.07a4.11,4.11,0,0,0,1.26.63c.29,0,.25-.32.31-1a6.07,6.07,0,0,1,.48-2.08c.23-.33.53,0,1.13.65a11.05,11.05,0,0,0,2,1.64c.45.23.45-.14.45-.75s0-1.46.19-1.6.58.43.91,1.1a11.45,11.45,0,0,0,1.27,2.26,12.1,12.1,0,0,0,2.07,2c.4.27.16-.13,0-1.17a26.42,26.42,0,0,1-.35-3.77c0-1.06.12-1.51.42-1.34a8.23,8.23,0,0,1,1.5,2.27A18.53,18.53,0,0,1,69.5,56a16.66,16.66,0,0,1-.29,7,23.81,23.81,0,0,1-2.69,6.6c-1,1.7-2.1,2.67-2.13,2.47s1-1.54,1.7-3.32a21,21,0,0,0,1.31-4.5c0-.53-.39.63-1.09,1.91a24.16,24.16,0,0,1-2.54,3.69A5.66,5.66,0,0,1,62,71.45c-.2,0,.1-.49.34-1s.44-1.16.33-1.11-.55.73-1.21,1.45a23.15,23.15,0,0,1-2.24,2.05,10.69,10.69,0,0,0-1.15.95c0,.09.39-.06,1.21-.32a16,16,0,0,1,2.52-.64c.45,0,.11.3-.79,1.11a38.31,38.31,0,0,1-3.93,3.2,16.59,16.59,0,0,1-4,2.13c-.74.19-.52-.29.1-1.66a38.82,38.82,0,0,0,2.19-5.67,16.5,16.5,0,0,0,.52-5.34,14.52,14.52,0,0,0-.46-2.92c-.11-.3-.07.24-.54,1.82A48,48,0,0,1,52.29,72c-1.14,2.35-2.43,4.42-3.39,6.16S47.34,81.32,47,81.77c-.2.21-.34.2-.46.15.07.26.15.55.24.81A2.67,2.67,0,0,0,47.54,84c.22.14.33,0,.62-.94a25.65,25.65,0,0,1,1.75-4.36c1-1.88,2.52-4.07,3.45-5.63s1.28-2.51,1.39-2.57,0,.75-.49,1.84-1.4,2.47-2.33,4.1S50,80,49.53,81s-.55,1.24,0,1.35a7.74,7.74,0,0,0,4-.71,42.86,42.86,0,0,0,8.07-4.44,48,48,0,0,0,6.84-5.76c1.65-1.71,2.53-3,2.6-2.83a9.94,9.94,0,0,1-2.21,3.52,34.87,34.87,0,0,1-6.47,5.7,40.25,40.25,0,0,1-6.7,3.66c-1.59.66-2.15.71-1.55.88a23,23,0,0,0,4.6.54,24.62,24.62,0,0,0,7.71-.87,24.24,24.24,0,0,0,7.14-3.48,4.84,4.84,0,0,0,2.23-3.43,17.54,17.54,0,0,0,.08-3.66c-.06-1-.15-1.5-.4-1.31a9.84,9.84,0,0,0-1,1.69c-.37.6-.67.9-.52.22a38.36,38.36,0,0,0,1.1-4.8,58.17,58.17,0,0,0,.37-8.35,41.31,41.31,0,0,0-.51-6.29c-.27-1.4-.61-2-.48-2a8.67,8.67,0,0,1,1.1,1.23c.37.48.52.74.32,0a9.17,9.17,0,0,0-2-3.62,17.34,17.34,0,0,0-5.09-3.13c-2-1-4.17-2-5.35-2.61s-1.37-.8-1.27-.2a26.1,26.1,0,0,0,.91,3.08,14,14,0,0,1,.7,1.89,7.1,7.1,0,0,1-1.26-2.28c-.62-1.49-1.31-3.67-2.09-6s-1.67-4.78-2.18-6.19c-.11-.31-.21-.56-.29-.77a20.19,20.19,0,0,0-1.64-3.75c-.68-1.17-1-1.34-1.44-1.4S54,27,53.5,27a8.7,8.7,0,0,1-1.71-.22c-.5-.13-.83-.31-.79-.34s.46.08,1.3.12a11.69,11.69,0,0,0,3.33-.32A8.14,8.14,0,0,0,59,24.5,3,3,0,0,0,60.1,22a3.55,3.55,0,0,0-1.43-2.18,3.79,3.79,0,0,0-2-.86,2.23,2.23,0,0,0-1.5.5,5.42,5.42,0,0,1,2,.29,5.34,5.34,0,0,1,1.42.78c.18.15,0,.06-.49,0a4.26,4.26,0,0,0-2,.2,7,7,0,0,0-2.47,1.74,30.75,30.75,0,0,0-2.32,2.73c-.52.66-.63.81-1,.81s-.92-.15-1.07,0,.11.49.45,1.17a7.07,7.07,0,0,1,.79,2.9,7.9,7.9,0,0,1-1.54,4.54,26.3,26.3,0,0,1-5.55,6,21.93,21.93,0,0,1-6.13,3.27,16.2,16.2,0,0,1-3.08.83c-.27,0,.3-.13,1.27-.7a12.65,12.65,0,0,0,3.36-2.82,15.87,15.87,0,0,0,2-3.71c.37-.91.5-1.18.62-1.23s.25.11.55.55.8,1.15.9.89a6.24,6.24,0,0,0-.58-2.44,3.48,3.48,0,0,0-1.74-2,9,9,0,0,0-2.82-.65c-.8-.08-1.22-.05-1.25,0s.32.24.83.54a7.42,7.42,0,0,1,1.5,1.17c.35.4.39.74-.26,1.87a15.51,15.51,0,0,1-3.63,4.32,12.31,12.31,0,0,1-5.63,2.26,21.18,21.18,0,0,1-5.42.27ZM41.63,80A5,5,0,0,1,42,78.83c.13-.15.29,0,.43-.63a32.32,32.32,0,0,0,.33-3.83c.08-1.59.12-3.22.19-3.77s.19,0,.29.49.19.91.27,1.15.18.31.39-.19.54-1.56.76-2.33.33-1.24.39-1.35.05.17.05.61,0,.73,0,1.19c-.05.16-.17,1.18-.47,2.42-.34,1.42-.92,3.14-1.18,4.68a22.65,22.65,0,0,0-.21,3.48c0,.57-.13.33-.32,0a4,4,0,0,0-.68-1c-.2-.17-.33,0-.51.24l-.06.08ZM50.7,24.24a2.92,2.92,0,0,1-.36.68c-.18.16-.32-.22-.46-.89s-.28-1.6-.58-2.74a7.8,7.8,0,0,0-1.92-3.61,11,11,0,0,0-4.49-2.58,9.67,9.67,0,0,0-3.74-.31l-.92.11.44-.12a26.38,26.38,0,0,1,4.82-.95,7.29,7.29,0,0,1,3.89.8,8.91,8.91,0,0,1,3,2.41,12.9,12.9,0,0,1,1.58,2.86c.27.65.29.74.16.93s-.44.46-.68.74c-.11.12-.21.25-.32.36A3.8,3.8,0,0,0,50.59,23a11,11,0,0,0-.32,1.5c-.05.4-.05.59.13.28.07-.11.17-.29.3-.52ZM38,14.7c.38-.14.81-.3,1.23-.44a9.07,9.07,0,0,0,2.1-.77c.07-.17-.76-.27-2-.41a23.64,23.64,0,0,0-5.78,0c-2.22.22-5.16.72-7.55,1.2h.08c2.78-.16,6.64-.53,9-.63s3.08.09,3.24.38S38.18,14.51,38,14.7Z"/><path class="cls-4" d="M22.59,50.71v.09a20.14,20.14,0,0,0,2.52,7.78c1.5,2.69,3.73,5.41,4.95,7.19a10.73,10.73,0,0,1,1.59,3c.15.42.23.42.18-.4q0-.15,0-.33l-.24-.55a34.41,34.41,0,0,0-2.22-4.45c-1-1.6-2.23-3.09-3.34-4.77A26.16,26.16,0,0,1,23.27,53a22.28,22.28,0,0,1-.68-2.26Zm9.76,15.08c.08.21.16.43.25.64A26.19,26.19,0,0,0,35,71.14c1,1.57,2.3,3.13,3,4s.8,1.07.63.4c-.08-.34-.24-.9-.41-1.57a15.9,15.9,0,0,1-1.65-1.84,49.38,49.38,0,0,1-3-4.29c-.6-1-.95-1.73-1.12-2.06Zm5.55,5.78s.13.34.36.94c.35.91,1,2.5,1.56,3.9s1.1,2.64,1.38,3.42c.08.19.14.36.19.51a.57.57,0,0,1-.28.22c-.16,0-.24-.33-.48-1s-.62-1.68-1.08-2.92-1-2.72-1.44-4.29l-.21-.77Zm6.94,1.6c-.18,1.14-.48,2.19-.65,3.66s-.26,3.63-.29,5,0,2,.25,1.94.45-.32.73-.68a7.36,7.36,0,0,1-.37-3.23c0-1.68.17-4.09.26-5.43C44.81,73.75,44.84,73.35,44.84,73.17Z"/><path class="cls-5" d="M16.45,40c-.51.65-2.19.94-3.35.89a2.42,2.42,0,0,1-2.38-1.51,13.8,13.8,0,0,1-1.3-5.13,34.38,34.38,0,0,1,.21-6.54,14.22,14.22,0,0,1,.63-3.05c.15-.4.2-.3.45.29s.69,1.68,1.22,2.76a22.06,22.06,0,0,0,1.67,2.88c.51.72.93,1.11,1.17,1.44a2.84,2.84,0,0,1,.42,1.49,19.34,19.34,0,0,0,.68,3.56C16.28,38.32,17,39.34,16.45,40Z"/><path class="cls-6" d="M16.45,40a3.71,3.71,0,0,1-2.31.85,3.3,3.3,0,0,0,.42-.23c.51-.34.72-.8.62-1.82s-.51-2.59-.72-3.71A20,20,0,0,0,14,32.45a26.24,26.24,0,0,0-1.19-2.67,4.2,4.2,0,0,1-.48-1.35,18.89,18.89,0,0,0,1.3,2.16c.51.72.93,1.11,1.17,1.44a2.84,2.84,0,0,1,.42,1.49,19.34,19.34,0,0,0,.68,3.56C16.28,38.32,17,39.34,16.45,40Z"/><path class="cls-4" d="M12.45,40.82a2.38,2.38,0,0,1-1.73-1.44,13.8,13.8,0,0,1-1.3-5.13,34.38,34.38,0,0,1,.21-6.54,14.22,14.22,0,0,1,.63-3.05c.07-.18.11-.26.17-.24a3,3,0,0,1,.09.45,48.78,48.78,0,0,1-.07,5.82,43.76,43.76,0,0,0,.35,6.69c.26,1.76.63,2.71,1.34,3.24A2,2,0,0,0,12.45,40.82Z"/><path class="cls-2" d="M52,24.65a32.1,32.1,0,0,1,2.8-2.81A3.8,3.8,0,0,1,57,20.79a1.51,1.51,0,0,1,1.25.45,1.28,1.28,0,0,1,.26,1.17,3.87,3.87,0,0,1-.6,1.24c-.19.28-.28.35-.25.27s.17-.31.29-.61a2.57,2.57,0,0,0,.19-1,.9.9,0,0,0-.41-.77,1.5,1.5,0,0,0-1.27.1A8.38,8.38,0,0,0,54.26,23a11.9,11.9,0,0,0-1.69,1.87c-.27.4-.13.4.23.38a9.07,9.07,0,0,1,1,0,2.46,2.46,0,0,1-.76.15c-.44.06-.91.12-1.21.14s-.4,0-.44,0S51.37,25.36,52,24.65Z"/><path class="cls-2" d="M39.2,25.64a5.49,5.49,0,0,1,2.07.34A3.93,3.93,0,0,1,42.8,27c.37.42.56.9.63.83a1.81,1.81,0,0,0-.2-1.13,3.68,3.68,0,0,0-.77-.89c-.13-.16,0-.23.29-.59a5,5,0,0,0,.92-2,8.49,8.49,0,0,0,0-3.22,2.31,2.31,0,0,0-1.28-1.76,2.69,2.69,0,0,0-2.42.15,4.54,4.54,0,0,0-2,2.64,7.32,7.32,0,0,0,0,3.08c.12.69.14.82-.09.95a6.94,6.94,0,0,0-1.1.55,1.76,1.76,0,0,0-.65.83c0,.08.38-.22,1-.44A6.87,6.87,0,0,1,39.2,25.64Z"/><path class="cls-4" d="M38.44,24.39a11.63,11.63,0,0,1-.13-1.78,5.07,5.07,0,0,1,.41-1.84,2.56,2.56,0,0,1,1.07-1.24,2.71,2.71,0,0,1,1.64-.21,1.57,1.57,0,0,1,1.29,1,5.41,5.41,0,0,1,.3,2.57,4.77,4.77,0,0,1-.66,1.87c-.24.4-.38.58-.51.64s-.25,0-.67-.12S40,25,39.51,24.91a6,6,0,0,0-.88-.05C38.5,24.84,38.5,24.78,38.44,24.39Z"/><path class="cls-6" d="M43.89,13a23.37,23.37,0,0,1,3.18-.89,5.48,5.48,0,0,1,2.58.16,2.85,2.85,0,0,1,1.8,1.17,3.76,3.76,0,0,1,.27,2.3,1.81,1.81,0,0,1-.54,1.1c-.15.1-.18,0-.67-.51a16.23,16.23,0,0,0-2.36-1.92,6.5,6.5,0,0,0-2.64-1,14.5,14.5,0,0,0-2.23-.08C42.9,13.25,43.11,13.21,43.89,13Z"/><path class="cls-3" d="M64.82,83.37a2.57,2.57,0,0,1,.44,1.26c0,.39-.26.62-1.29.76s-2.84.19-4.26.39-2.43.56-3,.58-.75-.29-.73-.62a1.33,1.33,0,0,1,.61-1,9.34,9.34,0,0,1,1.24-.64c.21-.1,0-.08-.29,0a4.47,4.47,0,0,0-1,.4,1.88,1.88,0,0,0-.72.67c-.15.26-.2.56-.35.67a.51.51,0,0,1-.59-.1.79.79,0,0,1-.26-.62,1.49,1.49,0,0,1,.26-.81c.17-.26.43-.47.45-.53s-.21.06-.43.19a1,1,0,0,0-.52.58c-.09.29,0,.71-.14.81s-.33-.11-.47-.4a1.25,1.25,0,0,1-.06-1,2,2,0,0,1,.66-.75,1,1,0,0,1,.57-.26,6.14,6.14,0,0,1,1,.13,25.49,25.49,0,0,0,2.68.27,30.83,30.83,0,0,0,3.36-.05c1-.07,1.68-.18,2.11-.23S64.62,83.08,64.82,83.37Z"/><path class="cls-3" d="M43.92,84.48c-.2.33-.4,1-.63,1.42s-.51.52-1,.83A14.2,14.2,0,0,0,40.41,88c-.46.39-.54.66-.39.79s.53.14,1.12,0,1.36-.54,1.66-.59.1.18-.33.48a11,11,0,0,0-1.44,1c-.34.34-.35.68.09.67a7.66,7.66,0,0,0,2.08-.7A6.83,6.83,0,0,1,44.6,89c.14,0-.1.32-.44.74s-.78,1-.69,1.09.71-.21,1.38-.74a13.93,13.93,0,0,0,1.81-1.78,2.65,2.65,0,0,0,.66-1.18,5.36,5.36,0,0,0,.06-1.1,6.72,6.72,0,0,0-.06-1.24c-.07-.3-.22-.39-.43-.67A7.13,7.13,0,0,1,46.28,83c-.15-.37-.19-.61-.24-.69s-.12,0-.35.35-.63.88-.86,1.18-.29.35-.41.36A.51.51,0,0,0,43.92,84.48Z"/><path class="cls-3" d="M40.85,81.58c-.14.43-.33,1.28-.55,1.78a1.5,1.5,0,0,1-1,.88c-.55.24-1.38.56-2,.82s-.9.45-.78.57a2.46,2.46,0,0,0,1.22.2c.55,0,1.08-.07,1.29-.07s.07.07-.3.27a9.9,9.9,0,0,0-1.31.82c-.32.27-.36.48-.23.57s.46.07,1-.13,1.36-.55,1.76-.68.41,0,.4.26,0,.67.07.71.23-.3.52-.56a6.62,6.62,0,0,1,1-.68,1.89,1.89,0,0,0,.66-.66,3.12,3.12,0,0,0,.3-1.19c.07-.62.12-1.55.14-2.08a1.51,1.51,0,0,0-.11-.85c-.11-.19-.3-.43-.49-.69a7,7,0,0,0-.45-.6c-.11-.1-.15,0-.29.13a7.83,7.83,0,0,1-.57.58A.94.94,0,0,0,40.85,81.58Z"/><path class="cls-3" d="M39.35,78.12a5.43,5.43,0,0,0-1.08.51,5,5,0,0,0-1.14.85,1.22,1.22,0,0,0-.36.88,1.44,1.44,0,0,0,.2.73c.11.14.22.14.26.11s0-.1,0-.25a1.37,1.37,0,0,1,.17-.59,1.33,1.33,0,0,1,.39-.4c.06,0,0,.06-.1.2a1.36,1.36,0,0,0-.2.62,1.79,1.79,0,0,0,.18.92.61.61,0,0,0,.45.36c.12,0,.14-.09.2-.27a2.89,2.89,0,0,1,.26-.63c.1-.16.2-.22.22-.19s-.06.17-.13.34a1.44,1.44,0,0,0-.09.64.94.94,0,0,0,.33.58.67.67,0,0,0,.59,0,1.37,1.37,0,0,0,.68-.42,1.81,1.81,0,0,0,.27-.81,3.16,3.16,0,0,0,.08-.57,1.36,1.36,0,0,0-.15-.59c-.12-.35-.35-.94-.48-1.31s-.16-.51-.21-.62S39.59,78.05,39.35,78.12Z"/><path class="cls-2" d="M41.11,25.75a2.45,2.45,0,0,0,2.1-2.69,2.46,2.46,0,0,0-2.1-2.7A2.46,2.46,0,0,0,39,23.06,2.46,2.46,0,0,0,41.11,25.75Z"/><path class="cls-4" d="M39.84,22.73a1.12,1.12,0,1,0-1.12-1.12A1.12,1.12,0,0,0,39.84,22.73Z"/><path class="cls-4" d="M40.92,23.75a.42.42,0,0,0,.42-.42.42.42,0,0,0-.84,0A.42.42,0,0,0,40.92,23.75Z"/><path class="cls-2" d="M23.08,33.88c1.65-.14,4.24-.27,6.62-.64s4.54-1,4.68-.87-1.75.85-4.48,1.29a53.38,53.38,0,0,1-7.74.53C20.72,34.17,21.43,34,23.08,33.88Z"/><path class="cls-2" d="M23.94,36c1.63.31,4.16.88,6.55,1.16s4.63.29,4.74.41-1.91.36-4.66,0A52.72,52.72,0,0,1,23,36.05C21.59,35.65,22.31,35.69,23.94,36Z"/><path class="cls-2" d="M12.16,32.91c-1.65-.13-4.25-.26-6.62-.63S1,31.32.86,31.4s1.74.86,4.47,1.3a53.42,53.42,0,0,0,7.75.53C14.51,33.2,13.8,33.05,12.16,32.91Z"/><path class="cls-2" d="M11.29,35c-1.62.31-4.15.88-6.54,1.16s-4.63.29-4.75.41,1.92.36,4.66,0a52.42,52.42,0,0,0,7.6-1.57C13.64,34.69,12.92,34.73,11.29,35Z"/><path class="cls-4" d="M13.34,22.15a1.66,1.66,0,0,1,.95-.94,4.05,4.05,0,0,1,2-.13,9.32,9.32,0,0,1,1.75.36,7.32,7.32,0,0,1-1.32.08,7.76,7.76,0,0,0-2.13.44,8.66,8.66,0,0,0-.92.54C13.45,22.56,13.26,22.43,13.34,22.15Z"/><path class="cls-2" d="M34,57.46a17.3,17.3,0,0,0,.75,2.24,5.4,5.4,0,0,0,1,1.77c.27.18.38-.22.51-.77a5.8,5.8,0,0,1,.39-1.39c.14-.17.29.15.55.6s.66,1,1,.82a6.05,6.05,0,0,0,.95-2.25,7.51,7.51,0,0,1,1-2.39c.3-.25.5.34,1,1.09A5.37,5.37,0,0,0,42.81,59c.45.16.58-.45.75-1.12s.41-1.4.31-1.29-.51,1-.78,1.46-.37.29-.9-.4a22.8,22.8,0,0,0-2-2.42c-.52-.45-.59-.08-.92.88a19.56,19.56,0,0,1-1.3,3.1c-.4.61-.61.31-1-.31s-.85-1.58-1.1-1.39-.24,1.53-.34,2.08-.31.32-.66-.44-.84-2-1-2.44S33.78,56.81,34,57.46Z"/><path class="cls-2" d="M59,56.56c0,.61.09,1.33.15,1.83s.14.79.29.8.37-.27.62-.54.51-.53.7-.43.31.53.56.88.6.62,1,.42a2.7,2.7,0,0,0,.9-1.77,6.08,6.08,0,0,0,.08-2.08,14.88,14.88,0,0,0-.4,1.57,2.35,2.35,0,0,1-.82,1.4c-.28.11-.52-.24-.73-.67s-.43-1-.71-.88-.65.77-.89,1-.34,0-.46-.56-.26-1.6-.31-1.85S58.91,56,59,56.56Z"/><text class="cls-7" transform="translate(86.8 74.97)"><tspan class="cls-8">K</tspan><tspan x="28.87" y="0">ap</tspan><tspan class="cls-9" x="82.95" y="0">p</tspan><tspan x="111.44" y="0">y</tspan></text><text class="cls-10" transform="translate(88.55 89.68)">Bu<tspan class="cls-11" x="29.16" y="0">y</tspan><tspan class="cls-12" x="41.51" y="0">s</tspan></text></g></g></svg>